<svg viewBox="0 0 500 500" xmlns="http://www.w3.org/2000/svg">
    <path
        d="M 375 200 L 375 66.666 L 250 0 L 125 66.666 L 125 200 L 0 266.666 L 0 433.333 L 125 500 L 250 433.333 L 375 500 L 500 433.333 L 500 266.666 L 375 200 Z M 252.812 37.333 L 343.75 85.333 L 262.5 128.666 L 171.562 80.666 L 252.812 37.333 Z M 156.25 92.666 L 250 142.666 L 250 262.666 L 156.25 212.666 L 156.25 92.666 L 156.25 92.666 Z M 125 462.666 L 31.25 412.666 L 31.25 292.666 L 125 342.666 L 125 462.666 Z M 133.75 329.333 L 43.75 280.666 L 125 237.333 L 215 285.333 L 133.75 329.333 Z M 375 462.666 L 281.25 412.666 L 281.25 292.666 L 375 342.666 L 375 462.666 Z M 383.75 329.333 L 293.75 280.666 L 375 237.333 L 465 285.333 L 383.75 329.333 Z"
        fill="#2135ca"
    />
</svg>
