<svg viewBox="0 0 500 500" xmlns="http://www.w3.org/2000/svg">
    <path
        d="M 500 83.361 L 481.945 351.199 L 309.323 0 L 500 83.361 Z M 380.435 429.69 L 250.001 500 L 119.564 429.69 L 146.093 368.951 L 353.906 368.951 L 380.435 429.69 Z M 17.87 351.199 L 0 83.361 L 190.677 0 L 17.87 351.199 Z"
        fill="#2135ca"
    />
    <g transform="matrix(18.891068, 0, 0, 18.891068, 98.871483, 65)">
        <path
            d="M12 6v-4l-4-2-4 2v4l-4 2v5l4 2 4-2 4 2 4-2v-5zM8.090 1.12l2.91 1.44-2.6 1.3-2.91-1.44zM5 2.78l3 1.5v3.6l-3-1.5v-3.6zM4 13.88l-3-1.5v-3.6l3 1.5v3.6zM4.28 9.88l-2.88-1.46 2.6-1.3 2.88 1.44zM12 13.88l-3-1.5v-3.6l3 1.5v3.6zM12.28 9.88l-2.88-1.46 2.6-1.3 2.88 1.44z"
            fill="#2135ca"
        />
    </g>
</svg>
